<svg width="30" height="31" viewBox="0 0 30 31" fill="none" xmlns="http://www.w3.org/2000/svg">
<path d="M15 21.4077L21 15.4077L18.9 13.3077L16.5 15.7077V9.40771H13.5V15.7077L11.1 13.3077L9 15.4077L15 21.4077ZM15 30.4077C12.925 30.4077 10.975 30.014 9.15 29.2265C7.325 28.439 5.7375 27.3702 4.3875 26.0202C3.0375 24.6702 1.96875 23.0827 1.18125 21.2577C0.39375 19.4327 0 17.4827 0 15.4077C0 13.3327 0.39375 11.3827 1.18125 9.55771C1.96875 7.73271 3.0375 6.14522 4.3875 4.79521C5.7375 3.44521 7.325 2.37646 9.15 1.58896C10.975 0.801465 12.925 0.407715 15 0.407715C17.075 0.407715 19.025 0.801465 20.85 1.58896C22.675 2.37646 24.2625 3.44521 25.6125 4.79521C26.9625 6.14522 28.0312 7.73271 28.8187 9.55771C29.6062 11.3827 30 13.3327 30 15.4077C30 17.4827 29.6062 19.4327 28.8187 21.2577C28.0312 23.0827 26.9625 24.6702 25.6125 26.0202C24.2625 27.3702 22.675 28.439 20.85 29.2265C19.025 30.014 17.075 30.4077 15 30.4077ZM15 27.4077C18.35 27.4077 21.1875 26.2452 23.5125 23.9202C25.8375 21.5952 27 18.7577 27 15.4077C27 12.0577 25.8375 9.22022 23.5125 6.89522C21.1875 4.57022 18.35 3.40771 15 3.40771C11.65 3.40771 8.8125 4.57022 6.4875 6.89522C4.1625 9.22022 3 12.0577 3 15.4077C3 18.7577 4.1625 21.5952 6.4875 23.9202C8.8125 26.2452 11.65 27.4077 15 27.4077Z" fill="black"/>
</svg>
