<svg width="32" height="33" viewBox="0 0 32 33" fill="none" xmlns="http://www.w3.org/2000/svg">
<path d="M10.6452 26.1762C10.6452 26.044 10.5161 25.9119 10.3226 25.9119C10.129 25.9119 10 26.044 10 26.1762C10 26.3083 10.129 26.4405 10.3226 26.3744C10.5161 26.3744 10.6452 26.3083 10.6452 26.1762ZM8.64516 25.8458C8.64516 25.9779 8.77419 26.1762 8.96774 26.1762C9.09677 26.2422 9.29032 26.1762 9.35484 26.044C9.35484 25.9119 9.29032 25.7797 9.09677 25.7137C8.90323 25.6476 8.70968 25.7137 8.64516 25.8458ZM11.5484 25.7797C11.3548 25.7797 11.2258 25.9119 11.2258 26.1101C11.2258 26.2422 11.4194 26.3083 11.6129 26.2422C11.8065 26.1762 11.9355 26.1101 11.871 25.9779C11.871 25.8458 11.6774 25.7137 11.5484 25.7797ZM15.7419 0.407715C6.83871 0.407715 0 7.41145 0 16.5295C0 23.8636 4.45161 30.1405 10.9032 32.387C11.7419 32.5192 12 31.9906 12 31.5941C12 31.1316 12 28.8852 12 27.4976C12 27.4976 7.48387 28.4887 6.51613 25.5154C6.51613 25.5154 5.80645 23.5993 4.77419 23.1368C4.77419 23.1368 3.29032 22.0796 4.83871 22.0796C4.83871 22.0796 6.45161 22.2118 7.35484 23.7975C8.77419 26.3744 11.0968 25.6476 12.0645 25.1851C12.1935 24.1279 12.5806 23.4011 13.0968 22.9386C9.48387 22.5422 5.80645 22.0136 5.80645 15.6706C5.80645 13.8205 6.32258 12.9616 7.35484 11.7723C7.16129 11.3098 6.64516 9.59185 7.54839 7.2793C8.83871 6.88286 12 9.06327 12 9.06327C13.2903 8.66683 14.6452 8.53469 16 8.53469C17.4194 8.53469 18.7742 8.66683 20.0645 9.06327C20.0645 9.06327 23.1613 6.81679 24.5161 7.2793C25.4194 9.59185 24.8387 11.3098 24.7097 11.7723C25.7419 12.9616 26.3871 13.8205 26.3871 15.6706C26.3871 22.0136 22.5806 22.5422 18.9677 22.9386C19.5484 23.4672 20.0645 24.4583 20.0645 26.044C20.0645 28.2244 20 30.9995 20 31.5281C20 31.9906 20.3226 32.5192 21.1613 32.3209C27.6129 30.1405 32 23.8636 32 16.5295C32 7.41145 24.7097 0.407715 15.7419 0.407715ZM6.25806 23.2029C6.12903 23.269 6.19355 23.4672 6.25806 23.5993C6.3871 23.6654 6.51613 23.7315 6.64516 23.6654C6.70968 23.5993 6.70968 23.4011 6.58065 23.269C6.45161 23.2029 6.32258 23.1368 6.25806 23.2029ZM5.54839 22.6743C5.48387 22.8064 5.54839 22.8725 5.67742 22.9386C5.80645 23.0047 5.93548 23.0047 6 22.8725C6 22.8064 5.93548 22.7404 5.80645 22.6743C5.67742 22.6082 5.6129 22.6082 5.54839 22.6743ZM7.6129 25.0529C7.54839 25.119 7.54839 25.3172 7.74194 25.4494C7.87097 25.5815 8.06452 25.6476 8.12903 25.5154C8.19355 25.4494 8.19355 25.2511 8.06452 25.119C7.93548 24.9869 7.74194 24.9208 7.6129 25.0529ZM6.90323 24.0618C6.77419 24.1279 6.77419 24.3261 6.90323 24.4583C7.03226 24.5904 7.16129 24.6565 7.29032 24.5904C7.35484 24.5243 7.35484 24.3261 7.29032 24.194C7.16129 24.0618 7.03226 23.9958 6.90323 24.0618Z" fill="white"/>
</svg>
